<svg xmlns="http://www.w3.org/2000/svg" viewBox="0 0 192 192" width="192" height="192">
  <defs>
    <linearGradient id="bg" x1="0%" y1="0%" x2="100%" y2="100%">
      <stop offset="0%" stop-color="#7B2FF7"/>
      <stop offset="40%" stop-color="#9333EA"/>
      <stop offset="70%" stop-color="#A855F7"/>
      <stop offset="100%" stop-color="#C084FC"/>
    </linearGradient>
    <linearGradient id="bag" x1="0%" y1="0%" x2="0%" y2="100%">
      <stop offset="0%" stop-color="#FFFFFF"/>
      <stop offset="100%" stop-color="#E8D5FF"/>
    </linearGradient>
    <linearGradient id="blade" x1="0%" y1="0%" x2="100%" y2="100%">
      <stop offset="0%" stop-color="#FFFFFF"/>
      <stop offset="100%" stop-color="#D4B8FF"/>
    </linearGradient>
    <filter id="shadow">
      <feDropShadow dx="0" dy="2" stdDeviation="3" flood-color="#000" flood-opacity="0.15"/>
    </filter>
    <filter id="glow">
      <feGaussianBlur stdDeviation="2" result="blur"/>
      <feMerge><feMergeNode in="blur"/><feMergeNode in="SourceGraphic"/></feMerge>
    </filter>
  </defs>
  <rect x="6" y="6" width="180" height="180" rx="42" ry="42" fill="url(#bg)"/>
  <rect x="6" y="6" width="180" height="180" rx="42" ry="42" fill="none" stroke="rgba(255,255,255,0.15)" stroke-width="2"/>
  <g filter="url(#shadow)">
    <path d="M58 84 L52 148 L140 148 L134 84 Z" fill="url(#bag)" opacity="0.95" stroke="rgba(255,255,255,0.6)" stroke-width="1"/>
    <path d="M52 84 Q52 72 64 72 L128 72 Q140 72 140 84 Z" fill="#fff" opacity="0.92"/>
    <path d="M76 72 Q76 48 96 48 Q116 48 116 72" fill="none" stroke="#fff" stroke-width="6" stroke-linecap="round"/>
  </g>
  <g filter="url(#glow)">
    <ellipse cx="70" cy="126" rx="12" ry="16" fill="none" stroke="url(#blade)" stroke-width="5" transform="rotate(-15,70,126)"/>
    <ellipse cx="122" cy="126" rx="12" ry="16" fill="none" stroke="url(#blade)" stroke-width="5" transform="rotate(15,122,126)"/>
    <line x1="76" y1="114" x2="102" y2="90" stroke="#fff" stroke-width="5.5" stroke-linecap="round"/>
    <line x1="116" y1="114" x2="90" y2="90" stroke="#fff" stroke-width="5.5" stroke-linecap="round"/>
    <circle cx="96" cy="96" r="4.5" fill="#fff" opacity="0.95"/>
    <circle cx="96" cy="96" r="2" fill="rgba(123,47,247,0.5)"/>
  </g>
  <circle cx="152" cy="38" r="3.5" fill="#FFD700" opacity="0.9"/>
  <circle cx="38" cy="44" r="2.5" fill="#FFD700" opacity="0.7"/>
  <circle cx="158" cy="60" r="1.8" fill="#FFD700" opacity="0.6"/>
  <circle cx="30" cy="66" r="1.2" fill="#FFD700" opacity="0.5"/>
</svg>