<svg xmlns="http://www.w3.org/2000/svg" viewBox="0 0 64 64" width="64" height="64">
  <defs>
    <linearGradient id="bg" x1="0%" y1="0%" x2="100%" y2="100%">
      <stop offset="0%" stop-color="#7B2FF7"/>
      <stop offset="50%" stop-color="#9B59B6"/>
      <stop offset="100%" stop-color="#C084FC"/>
    </linearGradient>
    <linearGradient id="bag" x1="0%" y1="0%" x2="0%" y2="100%">
      <stop offset="0%" stop-color="#FFFFFF"/>
      <stop offset="100%" stop-color="#E8D5FF"/>
    </linearGradient>
    <linearGradient id="blade" x1="0%" y1="0%" x2="100%" y2="100%">
      <stop offset="0%" stop-color="#FFFFFF"/>
      <stop offset="100%" stop-color="#D4B8FF"/>
    </linearGradient>
  </defs>
  <rect x="2" y="2" width="60" height="60" rx="14" ry="14" fill="url(#bg)"/>
  <path d="M20 28 L18 50 L46 50 L44 28 Z" fill="url(#bag)" opacity="0.95" stroke="#fff" stroke-width="0.5"/>
  <path d="M18 28 Q18 24 22 24 L42 24 Q46 24 46 28 Z" fill="#fff" opacity="0.9"/>
  <path d="M26 24 Q26 16 32 16 Q38 16 38 24" fill="none" stroke="#fff" stroke-width="2.2" stroke-linecap="round"/>
  <ellipse cx="22" cy="42" rx="4" ry="5.5" fill="none" stroke="url(#blade)" stroke-width="1.8" transform="rotate(-15,22,42)"/>
  <ellipse cx="42" cy="42" rx="4" ry="5.5" fill="none" stroke="url(#blade)" stroke-width="1.8" transform="rotate(15,42,42)"/>
  <line x1="24" y1="38" x2="34" y2="30" stroke="#fff" stroke-width="2" stroke-linecap="round"/>
  <line x1="40" y1="38" x2="30" y2="30" stroke="#fff" stroke-width="2" stroke-linecap="round"/>
  <circle cx="32" cy="32" r="1.5" fill="#fff"/>
  <circle cx="48" cy="14" r="1.2" fill="#FFD700" opacity="0.9"/>
  <circle cx="14" cy="16" r="0.8" fill="#FFD700" opacity="0.7"/>
  <circle cx="50" cy="22" r="0.6" fill="#FFD700" opacity="0.6"/>
</svg>